HIERARCHY
ROOT hips
{
	OFFSET 0.000000 104.274902 0.000000
	CHANNELS 6 Xposition Yposition Zposition Xrotation Yrotation Zrotation
	JOINT spine
	{
		OFFSET 0.000000 10.181549 0.131524
		CHANNELS 6 Xposition Yposition Zposition Xrotation Yrotation Zrotation
		JOINT chest
		{
			OFFSET 0.000000 9.893990 -1.470706
			CHANNELS 3 Xrotation Yrotation Zrotation
			JOINT upperChest
			{
				OFFSET 0.000000 9.220787 -1.370637
				CHANNELS 3 Xrotation Yrotation Zrotation
				JOINT neck
				{
					OFFSET 0.000000 16.740372 -2.049022
					CHANNELS 6 Xposition Yposition Zposition Xrotation Yrotation Zrotation
					JOINT head
					{
						OFFSET 0.000000 9.617859 1.684976
						CHANNELS 6 Xposition Yposition Zposition Xrotation Yrotation Zrotation
						JOINT headEnd
						{
							OFFSET 0.000000 22.037384 7.501072
							CHANNELS 6 Xposition Yposition Zposition Xrotation Yrotation Zrotation
							End Site
							{
								OFFSET 0.000000 23.106567 -2.828246
							}
						}
					}
				}
				JOINT rightShoulder
				{
					OFFSET -4.570000 11.014877 -2.160840
					CHANNELS 6 Xposition Yposition Zposition Xrotation Yrotation Zrotation
					JOINT rightUpperArm
					{
						OFFSET -10.592867 -0.524796 -2.232105
						CHANNELS 3 Xrotation Yrotation Zrotation
						JOINT rightLowerArm
						{
							OFFSET -27.841497 0.000000 -0.000002
							CHANNELS 3 Xrotation Yrotation Zrotation
							JOINT rightHand
							{
								OFFSET -28.328812 0.000000 -0.000001
								CHANNELS 3 Xrotation Yrotation Zrotation
								JOINT rightThumbProximal
								{
									OFFSET -2.464798 -1.573990 2.681911
									CHANNELS 6 Xposition Yposition Zposition Xrotation Yrotation Zrotation
									JOINT rightThumbIntermediate
									{
										OFFSET -3.244781 -1.873383 1.873376
										CHANNELS 3 Xrotation Yrotation Zrotation
										JOINT rightThumbDistal
										{
											OFFSET -2.646263 -1.527817 1.527818
											CHANNELS 6 Xposition Yposition Zposition Xrotation Yrotation Zrotation
											JOINT rightHandThumb4
											{
												OFFSET -1.994591 -1.151581 1.151575
												CHANNELS 6 Xposition Yposition Zposition Xrotation Yrotation Zrotation
												End Site
												{
													OFFSET -1.860176 -1.142715 1.365483
												}
											}
										}
									}
								}
								JOINT rightIndexProximal
								{
									OFFSET -9.108299 -0.517883 2.259803
									CHANNELS 6 Xposition Yposition Zposition Xrotation Yrotation Zrotation
									JOINT rightIndexIntermediate
									{
										OFFSET -3.699997 0.000000 0.000000
										CHANNELS 3 Xrotation Yrotation Zrotation
										JOINT rightIndexDistal
										{
											OFFSET -2.850006 0.000000 0.000000
											CHANNELS 3 Xrotation Yrotation Zrotation
											JOINT rightHandIndex4
											{
												OFFSET -2.772194 0.000000 0.000000
												CHANNELS 3 Xrotation Yrotation Zrotation
												End Site
												{
													OFFSET -2.772202 0.000000 -0.000484
												}
											}
										}
									}
								}
								JOINT rightMiddleProximal
								{
									OFFSET -9.532501 0.000000 -0.000000
									CHANNELS 6 Xposition Yposition Zposition Xrotation Yrotation Zrotation
									JOINT rightMiddleIntermediate
									{
										OFFSET -3.699997 0.000000 0.000000
										CHANNELS 3 Xrotation Yrotation Zrotation
										JOINT rightMiddleDistal
										{
											OFFSET -2.949997 0.000000 0.000000
											CHANNELS 3 Xrotation Yrotation Zrotation
											JOINT rightHandMiddle4
											{
												OFFSET -2.946594 0.000000 0.000000
												CHANNELS 3 Xrotation Yrotation Zrotation
												End Site
												{
													OFFSET -2.946602 0.000000 -0.000982
												}
											}
										}
									}
								}
								JOINT rightRingProximal
								{
									OFFSET -9.103600 -0.043106 -1.865100
									CHANNELS 6 Xposition Yposition Zposition Xrotation Yrotation Zrotation
									JOINT rightRingIntermediate
									{
										OFFSET -3.379303 0.000000 0.000000
										CHANNELS 3 Xrotation Yrotation Zrotation
										JOINT rightRingDistal
										{
											OFFSET -2.889694 0.000000 0.000000
											CHANNELS 3 Xrotation Yrotation Zrotation
											JOINT rightHandRing4
											{
												OFFSET -2.638802 0.000000 0.000000
												CHANNELS 3 Xrotation Yrotation Zrotation
												End Site
												{
													OFFSET -2.638802 0.000000 0.004218
												}
											}
										}
									}
								}
								JOINT rightLittleProximal
								{
									OFFSET -8.076698 -0.486725 -3.806299
									CHANNELS 6 Xposition Yposition Zposition Xrotation Yrotation Zrotation
									JOINT rightLittleIntermediate
									{
										OFFSET -3.600006 0.000000 0.000000
										CHANNELS 3 Xrotation Yrotation Zrotation
										JOINT rightLittleDistal
										{
											OFFSET -2.099998 0.000000 0.000000
											CHANNELS 3 Xrotation Yrotation Zrotation
											JOINT rightHandPinky4
											{
												OFFSET -2.115791 0.000000 0.000000
												CHANNELS 3 Xrotation Yrotation Zrotation
												End Site
												{
													OFFSET -2.115799 0.000000 0.000174
												}
											}
										}
									}
								}
							}
						}
					}
				}
				JOINT leftShoulder
				{
					OFFSET 4.570400 11.014679 -2.160816
					CHANNELS 6 Xposition Yposition Zposition Xrotation Yrotation Zrotation
					JOINT leftUpperArm
					{
						OFFSET 10.592373 -0.524597 -2.232116
						CHANNELS 3 Xrotation Yrotation Zrotation
						JOINT leftLowerArm
						{
							OFFSET 27.841488 0.000000 0.000001
							CHANNELS 3 Xrotation Yrotation Zrotation
							JOINT leftHand
							{
								OFFSET 28.328808 0.000000 -0.000000
								CHANNELS 3 Xrotation Yrotation Zrotation
								JOINT leftThumbProximal
								{
									OFFSET 2.466103 -1.576202 2.681698
									CHANNELS 6 Xposition Yposition Zposition Xrotation Yrotation Zrotation
									JOINT leftThumbIntermediate
									{
										OFFSET 3.243317 -1.872528 1.872530
										CHANNELS 3 Xrotation Yrotation Zrotation
										JOINT leftThumbDistal
										{
											OFFSET 2.647881 -1.528763 1.528754
											CHANNELS 6 Xposition Yposition Zposition Xrotation Yrotation Zrotation
											JOINT leftHandThumb4
											{
												OFFSET 1.998924 -1.154083 1.154080
												CHANNELS 6 Xposition Yposition Zposition Xrotation Yrotation Zrotation
												End Site
												{
													OFFSET 1.884041 -1.149155 1.337651
												}
											}
										}
									}
								}
								JOINT leftIndexProximal
								{
									OFFSET 9.109299 -0.518005 2.259900
									CHANNELS 6 Xposition Yposition Zposition Xrotation Yrotation Zrotation
									JOINT leftIndexIntermediate
									{
										OFFSET 3.699997 0.000000 0.000000
										CHANNELS 3 Xrotation Yrotation Zrotation
										JOINT leftIndexDistal
										{
											OFFSET 2.850006 0.000000 0.000000
											CHANNELS 3 Xrotation Yrotation Zrotation
											JOINT leftHandIndex4
											{
												OFFSET 2.774895 0.000000 0.000000
												CHANNELS 3 Xrotation Yrotation Zrotation
												End Site
												{
													OFFSET 2.774902 0.000000 -0.000072
												}
											}
										}
									}
								}
								JOINT leftMiddleProximal
								{
									OFFSET 9.533401 0.000000 0.000000
									CHANNELS 6 Xposition Yposition Zposition Xrotation Yrotation Zrotation
									JOINT leftMiddleIntermediate
									{
										OFFSET 3.699997 0.000000 0.000000
										CHANNELS 3 Xrotation Yrotation Zrotation
										JOINT leftMiddleDistal
										{
											OFFSET 2.949997 0.000000 0.000000
											CHANNELS 3 Xrotation Yrotation Zrotation
											JOINT leftHandMiddle4
											{
												OFFSET 2.952896 0.000000 0.000000
												CHANNELS 3 Xrotation Yrotation Zrotation
												End Site
												{
													OFFSET 2.952904 0.000000 0.000165
												}
											}
										}
									}
								}
								JOINT leftRingProximal
								{
									OFFSET 9.104500 -0.042999 -1.865101
									CHANNELS 6 Xposition Yposition Zposition Xrotation Yrotation Zrotation
									JOINT leftRingIntermediate
									{
										OFFSET 3.149994 0.000000 0.000000
										CHANNELS 3 Xrotation Yrotation Zrotation
										JOINT leftRingDistal
										{
											OFFSET 2.950005 0.000000 0.000000
											CHANNELS 3 Xrotation Yrotation Zrotation
											JOINT leftHandRing4
											{
												OFFSET 2.644302 0.000000 0.000000
												CHANNELS 3 Xrotation Yrotation Zrotation
												End Site
												{
													OFFSET 2.644302 0.000000 0.000083
												}
											}
										}
									}
								}
								JOINT leftLittleProximal
								{
									OFFSET 8.077805 -0.486893 -3.806302
									CHANNELS 6 Xposition Yposition Zposition Xrotation Yrotation Zrotation
									JOINT leftLittleIntermediate
									{
										OFFSET 3.600006 0.000000 0.000000
										CHANNELS 3 Xrotation Yrotation Zrotation
										JOINT leftLittleDistal
										{
											OFFSET 2.099998 0.000000 0.000000
											CHANNELS 3 Xrotation Yrotation Zrotation
											JOINT leftHandPinky4
											{
												OFFSET 2.125496 0.000000 0.000000
												CHANNELS 3 Xrotation Yrotation Zrotation
												End Site
												{
													OFFSET 2.125504 0.000000 -0.001254
												}
											}
										}
									}
								}
							}
						}
					}
				}
			}
		}
	}
	JOINT rightUpperLeg
	{
		OFFSET -8.207800 -6.751701 -1.599544
		CHANNELS 6 Xposition Yposition Zposition Xrotation Yrotation Zrotation
		JOINT rightLowerLeg
		{
			OFFSET 0.000004 -44.370152 0.345934
			CHANNELS 3 Xrotation Yrotation Zrotation
			JOINT rightFoot
			{
				OFFSET 0.000004 -44.423664 -3.043535
				CHANNELS 3 Xrotation Yrotation Zrotation
				JOINT rightToes
				{
					OFFSET 0.000001 -8.728691 10.710592
					CHANNELS 3 Xrotation Yrotation Zrotation
					JOINT rightToesEnd
					{
						OFFSET 0.000000 -0.000665 9.278101
						CHANNELS 3 Xrotation Yrotation Zrotation
						End Site
						{
							OFFSET 0.000000 -0.000665 9.278103
						}
					}
				}
			}
		}
	}
	JOINT leftUpperLeg
	{
		OFFSET 8.207800 -6.751701 -1.599544
		CHANNELS 6 Xposition Yposition Zposition Xrotation Yrotation Zrotation
		JOINT leftLowerLeg
		{
			OFFSET 0.000004 -44.370037 0.346940
			CHANNELS 3 Xrotation Yrotation Zrotation
			JOINT leftFoot
			{
				OFFSET 0.000004 -44.423611 -3.044388
				CHANNELS 3 Xrotation Yrotation Zrotation
				JOINT leftToes
				{
					OFFSET 0.000001 -8.728690 10.710592
					CHANNELS 3 Xrotation Yrotation Zrotation
					JOINT leftToesEnd
					{
						OFFSET 0.000000 -0.000680 9.278101
						CHANNELS 3 Xrotation Yrotation Zrotation
						End Site
						{
							OFFSET 0.000000 -0.000680 9.278101
						}
					}
				}
			}
		}
	}
}
MOTION
Frames: 4
Frame Time: 0.033333
1.640965 100.921974 2.582161 -2.036803 3.634257 3.922119 -0.000000 10.181519 0.131522 0.816197 12.220174 -6.749379 5.670144 1.668583 1.166956 5.610538 1.752866 1.294588 0.000000 16.740358 -2.049022 1.139479 1.430003 -1.260357 -0.000000 9.617866 1.684983 -25.888162 7.503831 -2.321670 -0.000003 22.037384 7.501065 0.000001 0.000001 0.000001 -4.570000 11.014915 -2.160843 1.054025 5.848910 7.953159 -25.997286 29.812850 48.304488 0.000416 99.615174 -0.000339 13.355138 9.038060 -8.349298 -2.464800 -1.574003 2.681916 -1.898937 -17.471441 -19.887335 3.799622 -19.010896 0.380080 -2.646255 -1.527785 1.527822 0.843151 -5.029511 -0.483497 -1.994597 -1.151584 1.151570 0.000003 -0.000001 -0.000000 -9.108294 -0.517896 2.259807 0.524038 6.580186 -4.405090 0.163356 -1.501315 12.419235 0.100855 1.182355 -9.750383 0.000000 -0.000001 0.000003 -9.532504 -0.000018 -0.000001 -0.274564 1.830866 7.109152 0.296518 -2.012661 16.759978 -1.127631 0.043196 -0.304424 -0.000002 -0.000000 -0.000003 -9.103586 -0.043127 -1.865100 1.030998 -3.931931 21.537569 0.516544 -2.634478 22.182984 -1.105252 -1.649007 11.495979 -0.000003 -0.000001 0.000000 -8.076677 -0.486732 -3.806297 4.850131 -8.172834 40.804926 0.596347 -2.822051 23.859149 0.501496 -2.597293 21.853171 -0.000005 -0.000002 0.000003 4.570400 11.014681 -2.160818 0.604431 -4.285765 -3.873152 48.911678 -9.142098 -52.061546 0.000051 -114.751085 0.000046 39.659340 6.057788 -7.393910 2.466098 -1.576219 2.681699 7.500759 -19.824735 -24.447771 4.904036 8.505134 -0.685198 2.647885 -1.528747 1.528748 -0.674682 4.944136 9.509532 1.998913 -1.154094 1.154067 -0.000003 -0.000000 0.000002 9.109312 -0.518023 2.259894 3.047833 -17.005785 9.716273 -0.000010 0.000020 -0.000070 0.007738 0.327052 -2.711080 -0.000003 -0.000002 0.000001 9.533401 -0.000016 0.000001 0.969345 -11.454303 4.355183 0.100403 1.174110 -9.777563 0.109959 1.228111 -10.232390 -0.000001 -0.000001 0.000003 9.104507 -0.043009 -1.865100 -0.192357 -5.835906 -2.220571 0.504964 2.592825 -22.038778 0.397767 2.310693 -19.533672 0.000000 0.000003 0.000000 8.077813 -0.486925 -3.806302 0.614631 3.421693 -13.076128 1.132016 -0.295783 -33.502553 0.766155 3.161619 -27.239049 0.000001 -0.000000 -0.000001 -8.207803 -6.751725 -1.599542 -16.903605 -1.759893 -15.926268 22.868957 -10.228330 -2.731362 4.151736 -11.925171 11.910955 -6.840391 -0.000009 0.000000 0.000000 0.000001 0.000000 8.207800 -6.751707 -1.599545 -8.831067 6.804717 -6.425845 24.881279 2.737351 3.763632 -13.593747 20.264604 1.375202 -5.010656 0.000020 0.000003 0.000000 -0.000002 -0.000001 
1.677856 100.922913 2.628960 -2.052191 3.654025 3.983040 -0.000000 10.181546 0.131523 0.715722 12.294428 -6.724129 5.632299 1.678809 1.152203 5.576961 1.762148 1.281387 -0.000000 16.740358 -2.049021 1.090585 1.448356 -1.294823 -0.000000 9.617855 1.684982 -25.791800 7.667177 -2.540453 -0.000002 22.037354 7.501071 -0.000000 -0.000000 0.000001 -4.570001 11.014869 -2.160841 1.060767 5.917153 7.978604 -27.187373 31.211823 49.459476 0.000524 96.211704 -0.000520 14.237824 9.050270 -13.272446 -2.464794 -1.573991 2.681915 -1.235199 -18.620066 -19.917986 3.799627 -19.010906 0.380061 -2.646271 -1.527800 1.527824 0.808312 -5.020951 -0.572711 -1.994576 -1.151583 1.151576 -0.000000 -0.000006 -0.000000 -9.108294 -0.517882 2.259804 0.434258 5.463978 -4.508172 0.164417 -1.506087 12.459128 0.104544 1.203682 -9.928023 -0.000001 -0.000002 0.000002 -9.532495 -0.000006 0.000004 -0.203662 1.466419 6.420552 0.282681 -1.966166 16.361457 -0.941679 0.032949 -0.237815 -0.000002 -0.000001 0.000002 -9.103606 -0.043105 -1.865092 0.799717 -3.415666 20.134793 0.472545 -2.523966 21.205027 -0.901019 -1.620265 11.590764 -0.000004 -0.000003 -0.000002 -8.076688 -0.486722 -3.806298 3.569881 -7.124631 36.234007 0.596350 -2.822044 23.859137 0.510313 -2.619179 22.047091 0.000002 0.000002 -0.000001 4.570402 11.014686 -2.160817 0.608746 -4.306810 -3.959964 48.862832 -9.073360 -52.155099 0.000024 -114.729488 0.000031 39.722126 6.032047 -7.467041 2.466101 -1.576201 2.681691 7.513025 -19.809750 -24.269054 4.874163 8.554675 -0.673610 2.647885 -1.528750 1.528752 -0.685251 4.691825 9.539233 1.998916 -1.154095 1.154074 -0.000001 -0.000003 0.000003 9.109290 -0.518008 2.259901 3.059234 -17.069456 9.711815 -0.000010 0.000019 -0.000070 0.009260 0.357311 -2.962128 -0.000003 -0.000001 0.000000 9.533397 -0.000003 0.000000 0.969334 -11.497105 4.333188 0.100415 1.174056 -9.777319 0.113700 1.248802 -10.406735 0.000000 0.000003 -0.000002 9.104494 -0.042990 -1.865098 -0.197031 -5.851000 -2.261303 0.504919 2.592755 -22.038514 0.400913 2.319519 -19.611136 -0.000001 0.000002 0.000000 8.077801 -0.486896 -3.806299 0.617927 3.427739 -13.131314 1.132018 -0.295784 -33.502553 0.766247 3.161778 -27.240538 0.000001 0.000003 0.000002 -8.207803 -6.751703 -1.599543 -16.881943 -1.820154 -16.019497 22.876458 -10.230843 -2.752830 4.115657 -11.883154 11.926023 -6.802495 0.000004 0.000003 0.000000 0.000001 0.000000 8.207801 -6.751691 -1.599544 -8.740791 6.739255 -6.531941 24.803572 2.785280 3.773606 -13.592087 20.251538 1.367573 -4.945323 0.000018 0.000002 0.000000 -0.000001 -0.000000 
1.706826 100.923729 2.677946 -2.080955 3.655326 4.074881 0.000000 10.181552 0.131522 0.604369 12.373804 -6.638974 5.595738 1.690500 1.104885 5.544161 1.771760 1.233773 -0.000000 16.740339 -2.049019 1.200863 1.484688 -1.337010 -0.000001 9.617851 1.684980 -25.144687 7.899258 -2.750072 0.000002 22.037369 7.501078 0.000001 0.000002 0.000001 -4.570002 11.014853 -2.160839 1.071792 6.010276 8.029313 -29.006444 33.653763 51.583586 0.025899 90.121600 -0.026565 13.305706 8.551122 -13.527319 -2.464797 -1.573998 2.681913 -0.360267 -19.670234 -19.411201 3.799646 -19.010909 0.380087 -2.646284 -1.527807 1.527816 0.777847 -5.015512 -0.664031 -1.994620 -1.151570 1.151571 0.000005 -0.000002 -0.000001 -9.108297 -0.517899 2.259796 0.324211 4.022489 -4.776990 0.165631 -1.511637 12.505964 0.104558 1.203672 -9.928015 0.000001 0.000001 0.000001 -9.532495 -0.000010 0.000001 -0.149806 0.995294 6.327134 0.255956 -1.872827 15.563846 -0.575439 0.021601 -0.163553 -0.000002 -0.000002 -0.000003 -9.103594 -0.043100 -1.865095 0.538871 -2.707814 20.143765 0.397163 -2.320522 19.421554 -0.533657 -1.510415 11.348683 -0.000004 -0.000000 -0.000001 -8.076681 -0.486721 -3.806298 2.163277 -5.421625 32.430206 0.596225 -2.821808 23.856816 0.491908 -2.573313 21.640741 0.000002 0.000001 0.000000 4.570401 11.014675 -2.160813 0.609199 -4.300452 -3.980945 48.768985 -9.041249 -52.259905 -0.000018 -114.631147 0.000005 39.875905 5.913940 -7.541669 2.466084 -1.576199 2.681696 7.539287 -19.774161 -23.847252 4.818920 8.554213 -0.669961 2.647874 -1.528739 1.528755 -0.703453 4.236239 9.593072 1.998912 -1.154095 1.154069 -0.000002 -0.000003 0.000005 9.109290 -0.518030 2.259895 3.020602 -16.853654 9.726977 -0.000008 0.000018 -0.000070 0.006899 0.309395 -2.564522 0.000001 0.000000 0.000000 9.533381 0.000012 -0.000001 0.961647 -11.348049 4.369264 0.100447 1.174216 -9.778562 0.107786 1.216101 -10.131195 -0.000001 0.000002 0.000000 9.104499 -0.042982 -1.865104 -0.189874 -5.789198 -2.208434 0.504978 2.592906 -22.039537 0.396074 2.305908 -19.491465 -0.000001 0.000001 -0.000001 8.077800 -0.486882 -3.806303 0.614094 3.420720 -13.067164 1.132017 -0.295781 -33.502553 0.766349 3.162001 -27.242667 0.000000 0.000003 0.000000 -8.207800 -6.751711 -1.599541 -16.871231 -1.880820 -16.173598 22.926879 -10.232097 -2.721300 4.053328 -11.782182 11.918335 -6.787652 0.000007 0.000004 -0.000000 -0.000001 0.000000 8.207801 -6.751698 -1.599543 -8.611325 6.694357 -6.666866 24.691672 2.780911 3.785742 -13.577831 20.313416 1.339874 -4.832613 -0.000020 -0.000004 -0.000000 -0.000004 0.000000 
1.730212 100.924294 2.729798 -2.112955 3.643527 4.180390 0.000000 10.181557 0.131524 0.483316 12.498940 -6.531449 5.532406 1.708489 1.038600 5.480008 1.786837 1.166348 -0.000000 16.740381 -2.049021 1.546070 1.518472 -1.333374 0.000000 9.617813 1.684992 -23.934463 8.177872 -3.012109 0.000000 22.037384 7.501081 0.000001 0.000000 0.000000 -4.570003 11.014869 -2.160837 1.086408 6.115094 8.104284 -31.308481 36.538715 54.349226 -0.000299 82.566530 0.000353 11.584645 7.616526 -9.866225 -2.464791 -1.574007 2.681919 0.496200 -20.290870 -18.545454 3.799614 -19.010891 0.380078 -2.646268 -1.527817 1.527823 0.758289 -5.017660 -0.759192 -1.994587 -1.151581 1.151564 0.000002 -0.000000 0.000005 -9.108289 -0.517866 2.259814 0.226282 2.807222 -5.059054 0.167012 -1.517892 12.558545 0.096517 1.156775 -9.537386 -0.000000 0.000004 0.000001 -9.532502 0.000015 0.000009 -0.110205 0.571932 6.578020 0.229998 -1.777063 14.748900 -0.233990 0.005841 -0.046424 -0.000001 -0.000003 -0.000000 -9.103601 -0.043105 -1.865088 0.329034 -2.146649 20.800142 0.331143 -2.124184 17.719452 -0.174715 -1.377562 10.889590 0.000002 0.000001 0.000000 -8.076687 -0.486721 -3.806293 1.161463 -3.880051 29.917410 0.596221 -2.821779 23.856671 0.456577 -2.482507 20.839773 -0.000000 -0.000001 -0.000001 4.570400 11.014703 -2.160815 0.603465 -4.267818 -3.871932 48.646649 -9.199364 -52.347485 -0.000013 -114.403531 -0.000034 39.943715 5.750230 -7.536819 2.466105 -1.576208 2.681693 7.579044 -19.720979 -23.200150 4.743440 8.457680 -0.683573 2.647882 -1.528760 1.528743 -0.726062 3.623863 9.665735 1.998928 -1.154071 1.154082 -0.000002 -0.000004 -0.000002 9.109317 -0.518016 2.259902 2.923701 -16.313029 9.765508 -0.000009 0.000020 -0.000070 0.002690 0.192085 -1.591853 -0.000002 0.000002 -0.000001 9.533431 0.000000 0.000001 0.943789 -10.975746 4.470529 0.100498 1.174570 -9.781468 0.093943 1.135863 -9.456224 0.000001 -0.000000 0.000001 9.104517 -0.043003 -1.865101 -0.170087 -5.637284 -2.051990 0.505093 2.593184 -22.041968 0.384293 2.272376 -19.196592 -0.000001 0.000001 -0.000000 8.077818 -0.486896 -3.806301 0.602472 3.399279 -12.871787 1.132015 -0.295785 -33.502549 0.766515 3.162311 -27.245447 0.000002 -0.000001 -0.000002 -8.207803 -6.751711 -1.599542 -16.862835 -1.923148 -16.334442 22.991568 -10.233207 -2.694261 3.985974 -11.671491 11.919584 -6.804616 -0.000008 0.000005 -0.000000 -0.000002 -0.000000 8.207799 -6.751705 -1.599544 -8.458559 6.726640 -6.794270 24.562216 2.750364 3.794684 -13.559844 20.343590 1.290864 -4.726305 0.000003 -0.000004 0.000000 -0.000003 -0.000000 
